#N canvas 577 80 749 671 12;
#X obj 19 63 fudiformat -u;
#X obj 19 89 list tosymbol;
#X obj 19 39 r code;
#X floatatom 16 207 5 0 0 0 - - -;
#X obj 17 171 s4pd 2 test.scm;
#X symbolatom 66 207 11 0 0 0 - - -;
#X obj 4 231 print s4pd-out;
#X msg 104 124 reset;
#X obj 27 124 r s4pd-in;
#X obj 186 127 s code;
#X text 187 111, f 75;
#X msg 186 84 (delay 500 (let ((captured-my-var my-var)) (lambda()(out
0 captured-my-var)))), f 54;
#X obj 187 221 s code;
#X text 188 205, f 75;
#X msg 187 178 (delay 500(lambda()(post :delay)(out 0 my-var)));
#X msg 186 33 (define my-var \$1);
#X floatatom 186 11 5 0 0 0 - - -;
#X connect 0 0 1 0;
#X connect 1 0 4 0;
#X connect 2 0 0 0;
#X connect 4 0 3 0;
#X connect 4 0 6 0;
#X connect 4 1 5 0;
#X connect 7 0 4 0;
#X connect 8 0 4 0;
#X connect 11 0 9 0;
#X connect 14 0 12 0;
#X connect 15 0 0 0;
#X connect 16 0 15 0;
