#N canvas 528 47 871 666 12;
#X obj 10 122 fudiformat -u;
#X obj 10 148 list tosymbol;
#X msg 73 181 reset;
#X obj 10 98 r \$0_c;
#X obj 17 180 r \$0_i;
#X obj 259 218 metro, f 10;
#X obj 350 171 snapshot~;
#X obj 412 121 tgl 15 0 empty empty empty 17 7 0 10 -262144 -1 -1 0
1;
#X floatatom 365 197 8 0 0 0 - - -;
#X obj 122 269 s \$0_c;
#X obj 345 97 phasor~ 1;
#X obj 592 168 snapshot~;
#X obj 658 118 tgl 15 0 empty empty empty 17 7 0 10 -262144 -1 -1 0
1;
#X floatatom 649 192 8 0 0 0 - - -;
#X obj 591 94 phasor~ 0.7;
#X obj 592 223 metro, f 10;
#X obj 592 297 s \$0_c;
#X msg 592 250 (cancel-delay cb);
#X obj 657 140 metro 1;
#X obj 411 143 metro 1;
#X msg 755 117 \; pd dsp 1;
#X obj 755 94 loadbang;
#X msg 755 159 \; pd dsp 0;
#X obj 592 117 *~ 100;
#X obj 346 120 *~ 100;
#X obj 346 144 +~ 100;
#X obj 592 141 +~ 100;
#X obj 167 103 tgl 15 0 empty empty empty 17 7 0 10 -262144 -1 -1 0
1;
#X obj 282 182 r run;
#X obj 591 197 r run;
#X obj 434 119 r run;
#X obj 683 115 r run;
#X obj 166 130 s run;
#X obj 258 185 tgl 15 0 empty empty empty 17 7 0 10 -262144 -1 -1 1
1;
#X obj 364 572 s \$0_c;
#X obj 364 498 tgl 15 0 empty empty empty 17 7 0 10 -262144 -1 -1 1
1;
#X obj 364 526 metro 110;
#X msg 122 245 (define cb (delay (random 1000) (lambda()(post :delayed))))
;
#X obj 388 497 r run;
#X obj 473 494 snapshot~;
#X obj 535 444 tgl 15 0 empty empty empty 17 7 0 10 -262144 -1 -1 0
1;
#X floatatom 488 520 8 0 0 0 - - -;
#X obj 468 420 phasor~ 1;
#X obj 534 466 metro 1;
#X obj 469 443 *~ 100;
#X obj 469 467 +~ 100;
#X obj 559 440 r run;
#X msg 364 549 (define cb-2 (delay (random 10) (lambda()(post :delayed))))
, f 66;
#X text 358 400 another instance with lower delay times (0-10ms);
#X msg 26 525 cancel-clocks;
#X obj 26 559 s \$0_i;
#X obj 126 341 s \$0_c;
#X obj 149 559 s \$0_i;
#X msg 149 525 clear-delays;
#X obj 147 468 tgl 15 0 empty empty empty 17 7 0 10 -262144 -1 -1 1
1;
#X obj 170 467 r run;
#X obj 26 465 s \$0_i;
#X obj 24 374 tgl 15 0 empty empty empty 17 7 0 10 -262144 -1 -1 0
1;
#X obj 47 373 r run;
#X msg 26 431 reset;
#X obj 560 200 tgl 15 0 empty empty empty 17 7 0 10 -262144 -1 -1 1
1;
#X text 91 14 Fuzzy tester for scheduling \, uses variable tempo barrage
of delay \, cancel-delay \, and resets. let this run for a while \,
and it should crashes delay if there are issues., f 79;
#X msg 127 310 (define cb (delay (random 100) (lambda()(post :delayed))))
;
#X obj 150 497 metro 3330;
#X obj 8 229 s4pd;
#X obj 27 403 metro 444;
#X connect 0 0 1 0;
#X connect 1 0 64 0;
#X connect 2 0 64 0;
#X connect 3 0 0 0;
#X connect 4 0 64 0;
#X connect 5 0 37 0;
#X connect 5 0 62 0;
#X connect 6 0 5 1;
#X connect 6 0 8 0;
#X connect 7 0 19 0;
#X connect 10 0 24 0;
#X connect 11 0 13 0;
#X connect 11 0 15 1;
#X connect 12 0 18 0;
#X connect 14 0 23 0;
#X connect 15 0 17 0;
#X connect 17 0 16 0;
#X connect 18 0 11 0;
#X connect 19 0 6 0;
#X connect 21 0 20 0;
#X connect 23 0 26 0;
#X connect 24 0 25 0;
#X connect 25 0 6 0;
#X connect 26 0 11 0;
#X connect 27 0 32 0;
#X connect 28 0 5 0;
#X connect 29 0 15 0;
#X connect 30 0 19 0;
#X connect 31 0 18 0;
#X connect 33 0 5 0;
#X connect 35 0 36 0;
#X connect 36 0 47 0;
#X connect 37 0 9 0;
#X connect 38 0 36 0;
#X connect 39 0 41 0;
#X connect 39 0 36 1;
#X connect 40 0 43 0;
#X connect 42 0 44 0;
#X connect 43 0 39 0;
#X connect 44 0 45 0;
#X connect 45 0 39 0;
#X connect 46 0 43 0;
#X connect 47 0 34 0;
#X connect 49 0 50 0;
#X connect 53 0 52 0;
#X connect 54 0 63 0;
#X connect 55 0 63 0;
#X connect 57 0 65 0;
#X connect 58 0 65 0;
#X connect 59 0 56 0;
#X connect 60 0 15 0;
#X connect 62 0 51 0;
#X connect 63 0 53 0;
#X connect 65 0 59 0;
