#N canvas 1121 -595 690 341 12;
#X obj 153 160 list prepend;
#X msg 11 158 reset, f 6;
#X obj 128 39 oscparse;
#X obj 26 72 print osc-in:;
#X obj 128 14 netreceive -u -b 8000;
#X obj 11 188 s4pd s4pd-osc.scm;
#X msg 153 134 handler foo bar "baz" 99 1.23;
#X text 309 14 OSC messages are sent to inlet 1 \, which does not turn
all symbols into scheme variables \, but keeps them as symbols instead.
;
#X text 150 93 Call handler with foo and bar as symbols (see dispatcher
in s4pd-osc.scm);
#X connect 0 0 5 1;
#X connect 1 0 5 0;
#X connect 2 0 3 0;
#X connect 2 0 5 1;
#X connect 4 0 2 0;
#X connect 6 0 0 0;
